# Blender 3.5.1
# www.blender.org
mtllib TestElevator.mtl
o Cube
v -1.361418 0.052112 1.511370
v -1.361418 4.255945 1.511370
v -1.361418 0.052112 -1.511370
v -1.361418 4.255945 -1.511370
v 1.361418 0.052112 1.511370
v 1.361418 4.255945 1.511370
v 1.361418 0.052112 -1.511370
v 1.361418 4.255945 -1.511370
v -1.322117 0.112789 1.467740
v -1.322117 4.195268 1.467740
v -1.322117 0.112789 -1.467740
v -1.322117 4.195268 -1.467740
v 1.322117 0.112789 1.467740
v 1.322117 4.195268 1.467740
v 1.322117 0.112789 -1.467740
v 1.322117 4.195268 -1.467740
v 1.361418 3.034860 -0.746021
v 1.361418 0.125382 0.746021
v 1.361418 3.034860 0.746021
v 1.361418 0.125382 -0.746021
v 1.322117 0.125382 0.746021
v 1.322117 3.034860 0.746021
v 1.322117 0.125382 -0.746021
v 1.322117 3.034860 -0.746021
vn -1.0000 -0.0000 -0.0000
vn -0.0000 -0.0000 -1.0000
vn 1.0000 -0.0000 -0.0000
vn -0.0000 -0.0000 1.0000
vn -0.0000 -1.0000 -0.0000
vn -0.0000 1.0000 -0.0000
vt 0.375000 0.000000
vt 0.375000 1.000000
vt 0.125000 0.750000
vt 0.625000 0.000000
vt 0.625000 1.000000
vt 0.875000 0.750000
vt 0.375000 0.250000
vt 0.125000 0.500000
vt 0.625000 0.250000
vt 0.875000 0.500000
vt 0.375000 0.750000
vt 0.625000 0.750000
vt 0.375000 0.500000
vt 0.625000 0.500000
vt 0.375000 0.000000
vt 0.375000 1.000000
vt 0.125000 0.750000
vt 0.625000 0.000000
vt 0.625000 1.000000
vt 0.875000 0.750000
vt 0.375000 0.250000
vt 0.125000 0.500000
vt 0.625000 0.250000
vt 0.875000 0.500000
vt 0.375000 0.750000
vt 0.625000 0.750000
vt 0.375000 0.500000
vt 0.625000 0.500000
vt 0.552383 0.538487
vt 0.625000 0.333686
vt 0.791314 0.500000
vt 0.379357 0.711513
vt 0.375000 0.916314
vt 0.208686 0.750000
vt 0.552383 0.711513
vt 0.625000 0.916314
vt 0.791314 0.750000
vt 0.379357 0.538487
vt 0.375000 0.333686
vt 0.208686 0.500000
vt 0.375771 0.714084
vt 0.375000 0.921528
vt 0.203472 0.750000
vt 0.553940 0.714084
vt 0.625000 0.921528
vt 0.796528 0.750000
vt 0.375771 0.535916
vt 0.375000 0.328472
vt 0.203472 0.500000
vt 0.553940 0.535916
vt 0.625000 0.328472
vt 0.796528 0.500000
s 0
usemtl Floor
f 11/22/6 9/17/6 13/25/6 15/27/6
usemtl Everything_else
f 1/1/1 2/4/1 4/9/1 3/7/1
f 3/7/2 4/9/2 8/14/2 7/13/2
f 20/38/3 7/13/3 8/14/3 6/12/3 5/11/3 18/32/3 19/35/3 17/29/3
f 18/32/3 5/11/3 7/13/3 20/38/3
f 5/11/4 6/12/4 2/5/4 1/2/4
f 3/8/5 7/13/5 5/11/5 1/3/5
f 8/14/6 4/10/6 2/6/6 6/12/6
f 9/15/3 11/21/3 12/23/3 10/18/3
f 11/21/4 15/27/4 16/28/4 12/23/4
f 15/27/1 13/25/1 21/41/1 23/47/1
f 13/25/1 14/26/1 16/28/1 15/27/1 23/47/1 24/50/1 22/44/1 21/41/1
f 13/25/2 9/16/2 10/19/2 14/26/2
f 16/28/5 14/26/5 10/20/5 12/24/5
f 20/39/4 17/30/4 24/51/4 23/48/4
f 22/45/2 19/36/2 18/33/2 21/42/2
f 18/34/6 20/40/6 23/49/6 21/43/6
f 24/52/5 17/31/5 19/37/5 22/46/5
